<svg width="40" height="40" viewBox="0 0 40 40" fill="none" xmlns="http://www.w3.org/2000/svg">
  <circle cx="20" cy="20" r="19.4737" fill="white" stroke="#EBEBEB" stroke-width="1.05263"/>
  <rect width="16" height="16" transform="translate(12 12)" fill="white"/>
  <path d="M18.6167 21.857L18.9703 22.2105L18.2632 22.9176L17.9096 22.5641L18.6167 21.857ZM16.1579 20.1053L15.8043 20.4588L15.4508 20.1053L15.8043 19.7517L16.1579 20.1053ZM17.9096 17.6464L18.2632 17.2929L18.9703 18L18.6167 18.3536L17.9096 17.6464ZM18.2632 22.2105L17.9096 22.5641L15.8043 20.4588L16.1579 20.1053L16.5114 19.7517L18.6167 21.857L18.2632 22.2105ZM16.1579 20.1053L15.8043 19.7517L17.9096 17.6464L18.2632 18L18.6167 18.3536L16.5114 20.4588L16.1579 20.1053ZM16.1579 20.1053V19.6053H23V20.1053V20.6053H16.1579V20.1053Z" fill="#111111"/>
</svg>
